<svg width="504" height="355" viewBox="0 0 504 355" fill="none" xmlns="http://www.w3.org/2000/svg">
<path fill-rule="evenodd" clip-rule="evenodd" d="M29.8886 1.20208H474.829C484.562 1.20208 487.293 1.20208 491.483 2.60973C496.436 4.41867 500.361 8.34015 502.171 13.2896C503.58 17.4765 503.58 20.2051 503.58 29.9299C503.58 56.8629 503.58 325.19 503.58 325.19C503.58 334.915 503.58 337.644 502.171 341.831C500.361 346.78 496.436 350.701 491.483 352.51C487.293 353.918 484.562 353.918 474.829 353.918C447.875 353.918 29.8886 353.918 29.8886 353.918C20.1563 353.918 17.4249 353.918 13.2353 352.51C8.28159 350.701 4.35707 346.78 2.54672 341.831C1.13778 337.644 1.13778 334.915 1.13778 325.19C1.13778 298.257 1.13778 29.9299 1.13778 29.9299C1.13778 20.2051 1.13778 17.4765 2.54672 13.2896C4.35707 8.34015 8.28159 4.41867 13.2353 2.60973C17.4249 1.20208 20.1563 1.20208 29.8886 1.20208Z" stroke="#E7E7E7" stroke-width="0.698567"/>
</svg>
