<svg width="623" height="17" viewBox="0 0 623 17" fill="none" xmlns="http://www.w3.org/2000/svg">
<g filter="url(#filter0_i)">
<path fill-rule="evenodd" clip-rule="evenodd" d="M1.24976 0.770198H621.79V4.23519H1.24976V0.770198Z" fill="white"/>
<path fill-rule="evenodd" clip-rule="evenodd" d="M1.24976 0.770198H621.79V4.23519H1.24976V0.770198Z" fill="url(#paint0_linear)" style="mix-blend-mode:multiply"/>
</g>
<g style="mix-blend-mode:multiply" opacity="0.1">
<path fill-rule="evenodd" clip-rule="evenodd" d="M598.678 0.769221H621.789V4.23422H598.678V0.769221Z" fill="url(#paint1_linear)"/>
</g>
<g style="mix-blend-mode:multiply" opacity="0.1">
<path fill-rule="evenodd" clip-rule="evenodd" d="M1.24983 0.770198H24.3612V4.23519H1.24983V0.770198Z" fill="url(#paint2_linear)"/>
</g>
<path fill-rule="evenodd" clip-rule="evenodd" d="M1.24845 4.23472H621.789C618.121 6.52376 585.593 15.9142 477.343 13.4747C467.782 13.4747 198.368 13.186 139.339 13.186C70.8299 13.186 42.4694 13.4612 16.5844 8.47558C7.5226 6.73029 2.98485 5.28884 1.24845 4.23472Z" fill="white"/>
<path fill-rule="evenodd" clip-rule="evenodd" d="M1.24845 4.23472H621.789C618.121 6.52376 585.593 15.9142 477.343 13.4747C467.782 13.4747 198.368 13.186 139.339 13.186C70.8299 13.186 42.4694 13.4612 16.5844 8.47558C7.5226 6.73029 2.98485 5.28884 1.24845 4.23472Z" fill="url(#paint3_linear)" style="mix-blend-mode:multiply"/>
<path fill-rule="evenodd" clip-rule="evenodd" d="M1.24845 4.23472H621.789C618.121 6.52376 585.593 15.9142 477.343 13.4747C467.782 13.4747 198.368 13.186 139.339 13.186C70.8299 13.186 42.4694 13.4612 16.5844 8.47558C7.5226 6.73029 2.98485 5.28884 1.24845 4.23472Z" fill="url(#paint4_linear)" style="mix-blend-mode:multiply"/>
<path fill-rule="evenodd" clip-rule="evenodd" d="M1.24845 4.23472H621.789C618.121 6.52376 585.593 15.9142 477.343 13.4747C467.782 13.4747 198.368 13.186 139.339 13.186C70.8299 13.186 42.4694 13.4612 16.5844 8.47558C7.5226 6.73029 2.98485 5.28884 1.24845 4.23472Z" fill="url(#paint5_linear)" style="mix-blend-mode:multiply"/>
<path fill-rule="evenodd" clip-rule="evenodd" d="M1.24845 4.23472H621.789C618.121 6.52376 585.593 15.9142 477.343 13.4747C467.782 13.4747 198.368 13.186 139.339 13.186C70.8299 13.186 42.4694 13.4612 16.5844 8.47558C7.5226 6.73029 2.98485 5.28884 1.24845 4.23472Z" fill="url(#paint6_linear)" style="mix-blend-mode:multiply"/>
<path fill-rule="evenodd" clip-rule="evenodd" d="M1.24845 4.23472H621.789C618.121 6.52376 585.593 15.9142 477.343 13.4747C467.782 13.4747 198.368 13.186 139.339 13.186C70.8299 13.186 42.4694 13.4612 16.5844 8.47558C7.5226 6.73029 2.98485 5.28884 1.24845 4.23472Z" fill="url(#paint7_linear)"/>
<g filter="url(#filter1_i)">
<path fill-rule="evenodd" clip-rule="evenodd" d="M252.007 0.768555H263.563H359.186H370.742V3.94479C370.742 5.162 359.186 5.38854 359.186 5.38854H263.563C263.563 5.38854 252.007 5.162 252.007 3.94479V0.768555Z" fill="white"/>
</g>
<g style="mix-blend-mode:multiply" opacity="0.07">
<path fill-rule="evenodd" clip-rule="evenodd" d="M252.006 0.76793H263.562V5.38791C263.562 5.38791 252.006 5.16138 252.006 3.94416C252.006 2.72697 252.006 0.76793 252.006 0.76793Z" fill="url(#paint8_linear)"/>
</g>
<g style="mix-blend-mode:multiply" opacity="0.07">
<path fill-rule="evenodd" clip-rule="evenodd" d="M370.742 0.76793H359.186V5.38791C359.186 5.38791 370.742 5.16138 370.742 3.94416C370.742 2.72697 370.742 0.76793 370.742 0.76793Z" fill="url(#paint9_linear)"/>
</g>
<defs>
<filter id="filter0_i" x="1.25" y="0.770508" width="620.54" height="3.46499" filterUnits="userSpaceOnUse" color-interpolation-filters="sRGB">
<feFlood flood-opacity="0" result="BackgroundImageFix"/>
<feBlend mode="normal" in="SourceGraphic" in2="BackgroundImageFix" result="shape"/>
<feColorMatrix in="SourceAlpha" type="matrix" values="0 0 0 0 0 0 0 0 0 0 0 0 0 0 0 0 0 0 127 0" result="hardAlpha"/>
<feOffset dy="0.356863"/>
<feComposite in2="hardAlpha" operator="arithmetic" k2="-1" k3="1"/>
<feColorMatrix type="matrix" values="0 0 0 0 0 0 0 0 0 0 0 0 0 0 0 0 0 0 0.02 0"/>
<feBlend mode="normal" in2="shape" result="effect1_innerShadow"/>
</filter>
<filter id="filter1_i" x="252.007" y="0.768555" width="118.735" height="4.61998" filterUnits="userSpaceOnUse" color-interpolation-filters="sRGB">
<feFlood flood-opacity="0" result="BackgroundImageFix"/>
<feBlend mode="normal" in="SourceGraphic" in2="BackgroundImageFix" result="shape"/>
<feColorMatrix in="SourceAlpha" type="matrix" values="0 0 0 0 0 0 0 0 0 0 0 0 0 0 0 0 0 0 127 0" result="hardAlpha"/>
<feOffset dy="0.356863"/>
<feComposite in2="hardAlpha" operator="arithmetic" k2="-1" k3="1"/>
<feColorMatrix type="matrix" values="0 0 0 0 0 0 0 0 0 0 0 0 0 0 0 0 0 0 0.03 0"/>
<feBlend mode="normal" in2="shape" result="effect1_innerShadow"/>
</filter>
<linearGradient id="paint0_linear" x1="0.960938" y1="4.52395" x2="622.079" y2="4.52395" gradientUnits="userSpaceOnUse">
<stop stop-opacity="0.04"/>
<stop offset="1" stop-color="white" stop-opacity="0.04"/>
</linearGradient>
<linearGradient id="paint1_linear" x1="627.934" y1="-0.0191722" x2="598.389" y2="-0.0191722" gradientUnits="userSpaceOnUse">
<stop/>
<stop offset="1" stop-color="white"/>
<stop offset="1" stop-color="white"/>
</linearGradient>
<linearGradient id="paint2_linear" x1="0.960938" y1="4.52395" x2="24.6501" y2="4.52395" gradientUnits="userSpaceOnUse">
<stop/>
<stop offset="1" stop-color="white"/>
<stop offset="1" stop-color="white"/>
</linearGradient>
<linearGradient id="paint3_linear" x1="0.670898" y1="16.3622" x2="622.366" y2="16.3622" gradientUnits="userSpaceOnUse">
<stop stop-opacity="0.07"/>
<stop offset="1" stop-color="#EAEAEA" stop-opacity="0.07"/>
<stop offset="1" stop-color="white" stop-opacity="0.07"/>
</linearGradient>
<linearGradient id="paint4_linear" x1="0.670898" y1="16.3622" x2="622.366" y2="16.3622" gradientUnits="userSpaceOnUse">
<stop stop-opacity="0.07"/>
<stop offset="1" stop-color="#EAEAEA" stop-opacity="0.07"/>
<stop offset="1" stop-color="white" stop-opacity="0.07"/>
</linearGradient>
<linearGradient id="paint5_linear" x1="0.670898" y1="3.65723" x2="0.670898" y2="16.3622" gradientUnits="userSpaceOnUse">
<stop stop-opacity="0.07"/>
<stop offset="1" stop-color="white" stop-opacity="0.07"/>
</linearGradient>
<linearGradient id="paint6_linear" x1="0.670898" y1="3.65723" x2="0.670898" y2="16.3622" gradientUnits="userSpaceOnUse">
<stop stop-color="white" stop-opacity="0.05"/>
<stop offset="1" stop-opacity="0.05"/>
</linearGradient>
<linearGradient id="paint7_linear" x1="311.519" y1="3.65723" x2="311.749" y2="24.5317" gradientUnits="userSpaceOnUse">
<stop stop-color="#EBEBEB"/>
<stop offset="1" stop-color="#585858" stop-opacity="0"/>
</linearGradient>
<linearGradient id="paint8_linear" x1="251.429" y1="5.67669" x2="263.851" y2="5.67669" gradientUnits="userSpaceOnUse">
<stop/>
<stop offset="1" stop-color="white"/>
<stop offset="1" stop-color="white"/>
</linearGradient>
<linearGradient id="paint9_linear" x1="371.03" y1="0.19043" x2="358.897" y2="0.19043" gradientUnits="userSpaceOnUse">
<stop/>
<stop offset="1" stop-color="white"/>
<stop offset="1" stop-color="white"/>
</linearGradient>
</defs>
</svg>
